<svg xmlns="http://www.w3.org/2000/svg" width="422.0" height="172.0" viewBox="0 0 422.0 172.0">
<defs>
<filter id="halo" x="-8%" y="-40%" width="116%" height="180%">
<feMorphology in="SourceAlpha" operator="dilate" radius="2.5" result="thick"/>
<feFlood flood-color="#FFFFFF" flood-opacity="0.92"/>
<feComposite in2="thick" operator="in" result="outline"/>
<feGaussianBlur in="outline" stdDeviation="2.0" result="glow"/>
<feMerge>
<feMergeNode in="glow"/>
<feMergeNode in="SourceGraphic"/>
</feMerge>
</filter>
</defs>
<circle cx="86" cy="86.0" r="46" fill="#F08C2E"/>
<path d="M78.68 65.09 C 70.32 65.09 70.32 80.77 63.00 86.00 C 70.32 91.23 70.32 106.91 78.68 106.91" fill="none" stroke="#FFFFFF" stroke-width="5.75" stroke-linecap="round" stroke-linejoin="round"/>
<path d="M93.32 65.09 C 101.68 65.09 101.68 80.77 109.00 86.00 C 101.68 91.23 101.68 106.91 93.32 106.91" fill="none" stroke="#FFFFFF" stroke-width="5.75" stroke-linecap="round" stroke-linejoin="round"/>
<g filter="url(#halo)">
<path d="M298 560Q362 560 411.5 534.0Q461 508 488 471V551H603V-262H488V80Q461 43 410.0 17.0Q359 -9 294 -9Q223 -9 164.5 27.5Q106 64 71.5 129.5Q37 195 37 278Q37 361 71.5 425.0Q106 489 165.5 524.5Q225 560 298 560ZM321 461Q277 461 239.0 439.5Q201 418 177.5 376.5Q154 335 154 278Q154 221 177.5 178.0Q201 135 239.5 112.5Q278 90 321 90Q365 90 403.0 112.0Q441 134 464.5 176.5Q488 219 488 276Q488 333 464.5 375.0Q441 417 403.0 439.0Q365 461 321 461Z" fill="#0a0a0a" transform="translate(146.00,101.34) scale(0.05600,-0.05600)"/>
<path d="M574 551V0H460V65Q433 31 389.5 11.5Q346 -8 297 -8Q232 -8 180.5 19.0Q129 46 99.5 99.0Q70 152 70 227V551H183V244Q183 170 220.0 130.5Q257 91 321 91Q385 91 422.5 130.5Q460 170 460 244V551Z" fill="#0a0a0a" transform="translate(182.97,101.34) scale(0.05600,-0.05600)"/>
<path d="M576 233H155Q160 167 204.0 127.0Q248 87 312 87Q404 87 442 164H565Q540 88 474.5 39.5Q409 -9 312 -9Q233 -9 170.5 26.5Q108 62 72.5 126.5Q37 191 37 276Q37 361 71.5 425.5Q106 490 168.5 525.0Q231 560 312 560Q390 560 451.0 526.0Q512 492 546.0 430.5Q580 369 580 289Q580 258 576 233ZM461 325Q460 388 416.0 426.0Q372 464 307 464Q248 464 206.0 426.5Q164 389 156 325Z" fill="#0a0a0a" transform="translate(218.31,101.34) scale(0.05600,-0.05600)"/>
<path d="M354 560V442H325Q258 442 223.5 408.0Q189 374 189 290V0H75V551H189V471Q214 513 255.5 536.5Q297 560 354 560Z" fill="#0a0a0a" transform="translate(251.86,101.34) scale(0.05600,-0.05600)"/>
<path d="M576 233H155Q160 167 204.0 127.0Q248 87 312 87Q404 87 442 164H565Q540 88 474.5 39.5Q409 -9 312 -9Q233 -9 170.5 26.5Q108 62 72.5 126.5Q37 191 37 276Q37 361 71.5 425.5Q106 490 168.5 525.0Q231 560 312 560Q390 560 451.0 526.0Q512 492 546.0 430.5Q580 369 580 289Q580 258 576 233ZM461 325Q460 388 416.0 426.0Q372 464 307 464Q248 464 206.0 426.5Q164 389 156 325Z" fill="#0a0a0a" transform="translate(272.37,101.34) scale(0.05600,-0.05600)"/>
<path d="M576 233H155Q160 167 204.0 127.0Q248 87 312 87Q404 87 442 164H565Q540 88 474.5 39.5Q409 -9 312 -9Q233 -9 170.5 26.5Q108 62 72.5 126.5Q37 191 37 276Q37 361 71.5 425.5Q106 490 168.5 525.0Q231 560 312 560Q390 560 451.0 526.0Q512 492 546.0 430.5Q580 369 580 289Q580 258 576 233ZM461 325Q460 388 416.0 426.0Q372 464 307 464Q248 464 206.0 426.5Q164 389 156 325Z" fill="#0a0a0a" transform="translate(305.92,101.34) scale(0.05600,-0.05600)"/>
<path d="M293 275 547 0H393L189 237V0H75V740H189V310L389 551H547Z" fill="#0a0a0a" transform="translate(339.47,101.34) scale(0.05600,-0.05600)"/>
<path d="M48 66Q48 97 69.0 118.0Q90 139 121 139Q151 139 172.0 118.0Q193 97 193 66Q193 35 172.0 14.0Q151 -7 121 -7Q90 -7 69.0 14.0Q48 35 48 66Z" fill="#F08C2E" transform="translate(369.50,101.34) scale(0.05600,-0.05600)"/>
</g>
</svg>
